<?xml version="1.0" encoding="UTF-8"?>
<svg id="Capa_1" data-name="Capa 1" xmlns="http://www.w3.org/2000/svg" viewBox="0 0 1080 1080">
  <path d="M830.52,538.57l-16.23,64.89c-11.64-16.31-25.71-29.74-45.93-34.48-45.24-10.6-87.01,20.13-90.57,66.27-3.56,46.2,3.52,97.15.04,143.33-5.57,73.89-95.43,112.69-153.45,65.48-17.41-14.17-35.85-43.91-35.85-66.88v-30.42h-24.33v41.23c0,3.7,5.41,20.84,7.08,25.37,20.61,55.98,82.44,87.2,140.26,74.01l-36.93,20.5c-10.75,3.3-26.31,13.34-37.46,11.35-22.68-4.04-65.31-30-84.74-43.73-173.15-122.38-224.12-368-230.04-567.92,102.27-28.58,203.77-67.81,291.47-128.26,4.68-3.23,24.01-19.64,27.44-18.72,56.16,44.53,120.97,75.95,186.49,104.26-25.75,25.41-43.09,59.84-47.27,95.99-8.66,74.91,36.01,148.44,108.1,171.69,4.23,1.36,19.06,6.06,22.33,6.06h19.6ZM303.32,385.14c-1.17,12.72.86,26.99,0,39.88h25.68v-41.23c0-8.24,14-26.35,22.63-27.52,4.71-.64,4.83,4.68,7.75,7.95,27.37,30.73,74.66,4.77,63.59-33.85-8.15-28.43-45.9-34.77-64.23-11.46-2.24,2.84-3.68,8.49-6.01,10.21-2.53,1.88-12.33,3.92-16.8,6.18-18.59,9.41-30.73,29.29-32.62,49.84ZM625.05,381.09c2.11,12.65-1.57,30.66,0,43.93h25.68v-46.64c0-17.58-21.73-38.7-36.93-45.53-3.62-1.63-9.85-2.24-12.18-3.71-1.25-.79-5.37-10.65-8.29-13.67-20.77-21.49-60.09-9.25-62.88,21.01-3.94,42.7,51.74,57.34,69.09,19.76,10.58-.9,23.95,15.44,25.52,24.84ZM334.41,448h-37.85c.36,27.33-1.64,54.34,3.13,81.36,10.5,59.4,53.17,111.94,109.09,134.24,8.31,3.31,36.89,9.85,40.62,13.45,9.72,9.39-2.01,39.16,8.62,45.46,3.7,2.19,35.51,2.1,39.16-.22,10.98-6.99-1.04-38.69,8.99-46.43,3.61-2.79,28.05-7.82,35.41-10.55,56.65-21.05,100.04-71.61,112.55-130.77,6.01-28.4,2.43-57.66,3.37-86.53h-37.85c-.33,33.73,2.78,66.93-8.06,99.41-38.61,115.61-216.51,124.15-264.28,11.4-14.95-35.29-12.9-73.17-12.89-110.8Z"/>
  <path d="M803.48,291.19l54.16,17.05c.21,58.2-6.37,116.16-14.95,173.56h-39.2v-64.89h-64.89v-73h64.89v-52.72Z"/>
  <path d="M694,818.39c4.1-13.04,8.46-26.12,9.44-39.89,3.28-46.21-4.01-97.6-.03-143.32,3.83-44,63.01-58.89,86.32-21.34,15.86,25.55,2.96,48.55-8.06,72.57-21.77,47.43-51.56,94.46-87.66,131.99Z"/>
</svg>