<?xml version="1.0" encoding="UTF-8"?>
<svg id="Capa_1" data-name="Capa 1" xmlns="http://www.w3.org/2000/svg" viewBox="0 0 1080 1080">
  <g>
    <path d="M829.5,389.78l-16.23,64.89c-11.64-16.31-25.71-29.74-45.93-34.48-45.24-10.6-87.01,20.13-90.57,66.27-3.56,46.2,3.52,97.15.04,143.33-5.57,73.89-95.43,112.69-153.45,65.48-17.41-14.17-35.85-43.91-35.85-66.88v-30.42h-24.33v41.23c0,3.7,5.41,20.84,7.08,25.37,20.61,55.98,82.44,87.2,140.26,74.01l-36.93,20.5c-10.75,3.3-26.31,13.34-37.46,11.35-22.68-4.04-65.31-30-84.74-43.73-173.15-122.38-224.12-368-230.04-567.92,102.27-28.58,203.77-67.81,291.47-128.26,4.68-3.23,24.01-19.64,27.44-18.72,56.16,44.53,120.97,75.95,186.49,104.26-25.75,25.41-43.09,59.84-47.27,95.99-8.66,74.91,36.01,148.44,108.1,171.69,4.23,1.36,19.06,6.06,22.33,6.06h19.6ZM302.3,236.35c-1.17,12.72.86,26.99,0,39.88h25.68v-41.23c0-8.24,14-26.35,22.63-27.52,4.71-.64,4.83,4.68,7.75,7.95,27.37,30.73,74.66,4.77,63.59-33.85-8.15-28.43-45.9-34.77-64.23-11.46-2.24,2.84-3.68,8.49-6.01,10.21-2.53,1.88-12.33,3.92-16.8,6.18-18.59,9.41-30.73,29.29-32.62,49.84ZM624.03,232.29c2.11,12.65-1.57,30.66,0,43.93h25.68v-46.64c0-17.58-21.73-38.7-36.93-45.53-3.62-1.63-9.85-2.24-12.18-3.71-1.25-.79-5.37-10.65-8.29-13.67-20.77-21.49-60.09-9.25-62.88,21.01-3.94,42.7,51.74,57.34,69.09,19.76,10.58-.9,23.95,15.44,25.52,24.84ZM333.39,299.21h-37.85c.36,27.33-1.64,54.34,3.13,81.36,10.5,59.4,53.17,111.94,109.09,134.24,8.31,3.31,36.89,9.85,40.62,13.45,9.72,9.39-2.01,39.16,8.62,45.46,3.7,2.19,35.51,2.1,39.16-.22,10.98-6.99-1.04-38.69,8.99-46.43,3.61-2.79,28.05-7.82,35.41-10.55,56.65-21.05,100.04-71.61,112.55-130.77,6.01-28.4,2.43-57.66,3.37-86.53h-37.85c-.33,33.73,2.78,66.93-8.06,99.41-38.61,115.61-216.51,124.15-264.28,11.4-14.95-35.29-12.9-73.17-12.89-110.8Z"/>
    <path d="M802.46,142.4l54.16,17.05c.21,58.2-6.37,116.16-14.95,173.56h-39.2v-64.89h-64.89v-73h64.89v-52.72Z"/>
    <path d="M692.98,669.6c4.1-13.04,8.46-26.12,9.44-39.89,3.28-46.21-4.01-97.6-.03-143.32,3.83-44,63.01-58.89,86.32-21.34,15.86,25.55,2.96,48.55-8.06,72.57-21.77,47.43-51.56,94.46-87.66,131.99Z"/>
  </g>
  <g>
    <path d="M229.31,825.05l22.3,97.3,22.3-97.3h35.15v155.46h-28.39v-77.05l-14.28,77.11-30.33-.05c-2.91-25.1-7.12-50.03-10.84-75.03-.35-2.37.72-2.26-2.67-2.03v77.05h-28.39v-155.46h35.15Z"/>
    <path d="M434.78,980.51v-155.46h52.04c15.32,0,33.18,19.4,34.53,34.42,2.59,28.82-1.55,62.13-.65,91.38-2.22,11.92-20.6,29.66-32.52,29.66h-53.4ZM463.16,956.18h19.6c3.38,0,10.12-6.19,10.06-10.21-2-26.65,2.91-57.72.16-83.82-.5-4.77-5.26-12.75-10.23-12.75h-19.6v106.79Z"/>
    <path d="M798.41,980.51v-155.46h52.04c15.32,0,33.18,19.4,34.53,34.42,2.59,28.82-1.55,62.13-.65,91.38-2.22,11.92-20.6,29.66-32.52,29.66h-53.4ZM826.8,956.18h19.6c3.38,0,10.12-6.19,10.06-10.21-2-26.65,2.91-57.72.16-83.82-.5-4.77-5.26-12.75-10.23-12.75h-19.6v106.79Z"/>
    <polygon points="409.09 825.05 409.09 849.39 367.19 849.39 367.19 891.29 391.52 891.29 391.52 915.62 367.19 915.62 367.19 956.18 411.8 956.18 411.8 980.51 338.8 980.51 338.8 825.05 409.09 825.05"/>
    <polygon points="772.72 825.05 772.72 849.39 730.82 849.39 730.82 891.29 755.15 891.29 755.15 915.62 730.82 915.62 730.82 956.18 775.43 956.18 775.43 980.51 702.43 980.51 702.43 825.05 772.72 825.05"/>
    <polygon points="680.8 825.05 680.8 849.39 637.55 849.39 637.55 895.35 665.93 895.35 665.93 921.03 637.55 921.03 637.55 980.51 609.16 980.51 609.16 825.05 680.8 825.05"/>
    <rect x="549.68" y="825.05" width="28.39" height="155.46"/>
  </g>
  <g>
    <path d="M200.92,1022.41l14.68.19,11.02,32.25c7.09-5.41,8.09-25.42,12.8-31.11,2.34-2.82,11.7-.71,15.57-1.33v44.61h-9.46v-35.15l-13.67,34.98-9.46-.64-13.37-34.34v35.15h-8.11v-44.61Z"/>
    <polygon points="684.86 1022.41 698.1 1022.7 718.64 1053.5 717.29 1022.41 726.76 1022.41 726.76 1067.02 714.87 1066.74 692.98 1033.23 694.33 1067.03 684.86 1067.02 684.86 1022.41"/>
    <path d="M347.59,1022.41c15.03,3.02,18.13,27.67,8.81,38.17-1.46,1.64-9.93,6.44-11.51,6.44h-22.3v-44.61c7.38,1.01,18.14-1.38,25.01,0ZM332.04,1058.91c13.34,1.21,19.4-1.37,19.02-15.56-.36-13.23-7.4-13.72-19.02-12.82v28.39Z"/>
    <path d="M869.38,1022.41c8.68,1.55,14.13,13.29,8.08,20.24-2.46,2.83-7.26,1.81-8.75,5.42,10.79-.31,9.73,12.05,13.52,18.93l-12.11-.05c-.41-12.71-4.5-17.59-17.64-16.16v16.23s-9.46,0-9.46,0v-44.61c7.96.98,18.83-1.34,26.36,0ZM852.47,1044.05c23.27,3.43,23.34-18.3,0-14.88v14.88Z"/>
    <path d="M499.66,1067.01l-10.68-.13-2.14-8-17.42-1.16-3.73,9.12-10.63.16,15.05-44.41,15.38,1.14,14.17,43.27ZM484.79,1050.79c-3.03-5.93-3.63-12.82-6.1-18.92-.52-1.3-.17-3.09-2-2.69l-5.42,21.61h13.51Z"/>
    <polygon points="305.01 1022.41 305.01 1029.17 280.67 1029.17 280.67 1039.99 302.3 1039.99 302.3 1048.1 280.67 1048.1 280.67 1058.91 305.01 1058.91 305.01 1067.02 271.21 1067.02 271.21 1022.41 305.01 1022.41"/>
    <polygon points="668.64 1022.41 668.64 1029.17 644.3 1029.17 644.3 1039.99 665.93 1039.99 665.93 1048.1 644.3 1048.1 644.3 1058.91 668.64 1058.91 668.64 1067.02 634.84 1067.02 634.84 1022.41 668.64 1022.41"/>
    <polygon points="826.8 1022.41 826.8 1029.17 802.46 1029.17 802.46 1039.99 824.09 1039.99 824.09 1048.1 802.46 1048.1 802.46 1058.91 826.8 1058.91 826.8 1067.02 793 1067.02 793 1022.41 826.8 1022.41"/>
    <path d="M441.4,1035.81l-7.87,1.4c-1.02-6.24-5.29-8.78-11.47-8-11.82,1.48-12.64,27.87.5,30.52,7.13,1.44,13.22-2.49,12.25-10.26l9.39,1.4c-.71,16.93-17.74,21.11-31.13,14.2-13.84-7.14-13.56-31.81-1.18-40.54,10.17-7.16,31.6-4.69,29.51,11.27Z"/>
    <path d="M617.13,1035.81l-7.87,1.4c-1.02-6.24-5.29-8.78-11.47-8-11.82,1.48-12.64,27.87.5,30.52,7.13,1.44,13.22-2.49,12.25-10.26l9.39,1.4c-.71,16.93-17.74,21.11-31.13,14.2-13.84-7.14-13.56-31.81-1.18-40.54,10.17-7.16,31.6-4.69,29.51,11.27Z"/>
    <polygon points="778.13 1022.41 778.14 1030.53 764.61 1030.52 764.61 1067.02 755.15 1067.02 755.15 1030.52 741.63 1030.53 741.63 1022.41 778.13 1022.41"/>
    <polygon points="523.99 1022.41 523.99 1058.91 542.92 1058.91 542.92 1067.02 514.53 1067.02 514.53 1022.41 523.99 1022.41"/>
    <rect x="378" y="1022.41" width="9.46" height="44.61"/>
  </g>
</svg>